<svg width="45" height="44" viewBox="0 0 45 44" fill="none" xmlns="http://www.w3.org/2000/svg">
<path d="M0.200684 22C0.200684 9.84974 10.0504 0 22.2007 0C34.3509 0 44.2007 9.84974 44.2007 22C44.2007 34.1503 34.3509 44 22.2007 44C10.0504 44 0.200684 34.1503 0.200684 22Z" fill="url(#paint0_linear)"/>
<path d="M17.2007 17H28.2007" stroke="url(#paint1_linear)" stroke-width="3"/>
<path d="M16.2007 37.5H29.2007" stroke="url(#paint2_linear)" stroke-width="3"/>
<line x1="22.7007" y1="18.5" x2="22.7007" y2="36.5" stroke="url(#paint3_linear)" stroke-width="3"/>
<path d="M21.2453 5.09181C21.5356 4.15213 22.8657 4.15213 23.1561 5.09181L23.3993 5.87883C23.5288 6.29784 23.9162 6.58359 24.3547 6.58359H25.2444C26.2009 6.58359 26.6116 7.79757 25.8515 8.37825L25.0468 8.99296C24.7138 9.24737 24.5747 9.68245 24.6984 10.0829L24.9852 11.0108C25.2726 11.941 24.1964 12.6918 23.4227 12.1007L22.8077 11.6309C22.4493 11.3571 21.952 11.3571 21.5936 11.6309L20.9787 12.1007C20.205 12.6918 19.1287 11.941 19.4162 11.0108L19.7029 10.0829C19.8267 9.68245 19.6876 9.24737 19.3546 8.99296L18.5499 8.37825C17.7898 7.79757 18.2004 6.58359 19.157 6.58359H20.0466C20.4852 6.58359 20.8726 6.29784 21.0021 5.87883L21.2453 5.09181Z" fill="url(#paint4_linear)"/>
<defs>
<linearGradient id="paint0_linear" x1="43.7007" y1="-5" x2="-14.7993" y2="72.5" gradientUnits="userSpaceOnUse">
<stop stop-color="#7F53AC"/>
<stop offset="1" stop-color="#647DEE" stop-opacity="0"/>
</linearGradient>
<linearGradient id="paint1_linear" x1="22.7007" y1="18.5" x2="22.7007" y2="19.5" gradientUnits="userSpaceOnUse">
<stop stop-color="white"/>
<stop offset="1" stop-color="#F8F9D2" stop-opacity="0.3"/>
</linearGradient>
<linearGradient id="paint2_linear" x1="21.7007" y1="39" x2="21.7007" y2="40" gradientUnits="userSpaceOnUse">
<stop stop-color="white"/>
<stop offset="1" stop-color="#F8F9D2" stop-opacity="0.3"/>
</linearGradient>
<linearGradient id="paint3_linear" x1="21.2007" y1="27.5" x2="20.2007" y2="27.5" gradientUnits="userSpaceOnUse">
<stop stop-color="white"/>
<stop offset="1" stop-color="#F8F9D2" stop-opacity="0.3"/>
</linearGradient>
<linearGradient id="paint4_linear" x1="22.2007" y1="2" x2="29.2007" y2="55" gradientUnits="userSpaceOnUse">
<stop stop-color="#E8DBFC"/>
<stop offset="1" stop-color="#F8F9D2" stop-opacity="0"/>
</linearGradient>
</defs>
</svg>
