<svg width="25" height="24" viewBox="0 0 25 24" fill="none" xmlns="http://www.w3.org/2000/svg">
<path fill-rule="evenodd" clip-rule="evenodd" d="M12.3433 24C18.9707 24 24.3433 18.6274 24.3433 12C24.3433 5.37258 18.9707 0 12.3433 0C5.71584 0 0.343262 5.37258 0.343262 12C0.343262 18.6274 5.71584 24 12.3433 24Z" fill="#F2F6FF"/>
<path d="M18.3433 19.5H7.84326C7.01826 19.5 6.34326 18.825 6.34326 18V6C6.34326 5.175 7.01826 4.5 7.84326 4.5H18.3433V19.5Z" fill="white" stroke="#3913B8" stroke-width="1.2" stroke-miterlimit="10" stroke-linecap="round" stroke-linejoin="round"/>
<path d="M18.3433 19.5H7.84326C7.01826 19.5 6.34326 18.825 6.34326 18C6.34326 17.175 7.01826 16.5 7.84326 16.5H18.3433V19.5Z" fill="#2FB8FF" stroke="#3913B8" stroke-width="1.2" stroke-miterlimit="10" stroke-linecap="round" stroke-linejoin="round"/>
<path d="M9.34326 12H15.3433" stroke="#3913B8" stroke-width="1.2" stroke-miterlimit="10" stroke-linecap="round" stroke-linejoin="round"/>
<path d="M9.34326 9H15.3433" stroke="#3913B8" stroke-width="1.2" stroke-miterlimit="10" stroke-linecap="round" stroke-linejoin="round"/>
</svg>
