<svg width="25" height="24" viewBox="0 0 25 24" fill="none" xmlns="http://www.w3.org/2000/svg">
<path d="M16.3433 12L12.3433 5L8.34326 12L3.34326 5L4.34326 18H20.3433L21.3433 5L16.3433 12Z" fill="#B5CDFB" stroke="#3913B8" stroke-width="1.2" stroke-miterlimit="10" stroke-linecap="round" stroke-linejoin="round"/>
<path fill-rule="evenodd" clip-rule="evenodd" d="M21.8433 21H2.84326C2.56326 21 2.34326 20.78 2.34326 20.5V18.5C2.34326 18.22 2.56326 18 2.84326 18H21.8433C22.1233 18 22.3433 18.22 22.3433 18.5V20.5C22.3433 20.78 22.1233 21 21.8433 21Z" stroke="#3913B8" stroke-width="1.2" stroke-miterlimit="10" stroke-linecap="round" stroke-linejoin="round"/>
<path d="M3.34326 5C3.89555 5 4.34326 4.55228 4.34326 4C4.34326 3.44772 3.89555 3 3.34326 3C2.79098 3 2.34326 3.44772 2.34326 4C2.34326 4.55228 2.79098 5 3.34326 5Z" stroke="#3913B8" stroke-width="1.2" stroke-miterlimit="10" stroke-linecap="round" stroke-linejoin="round"/>
<path d="M21.3433 5C21.8955 5 22.3433 4.55228 22.3433 4C22.3433 3.44772 21.8955 3 21.3433 3C20.791 3 20.3433 3.44772 20.3433 4C20.3433 4.55228 20.791 5 21.3433 5Z" stroke="#3913B8" stroke-width="1.2" stroke-miterlimit="10" stroke-linecap="round" stroke-linejoin="round"/>
<path d="M12.3433 5C12.8955 5 13.3433 4.55228 13.3433 4C13.3433 3.44772 12.8955 3 12.3433 3C11.791 3 11.3433 3.44772 11.3433 4C11.3433 4.55228 11.791 5 12.3433 5Z" stroke="#3913B8" stroke-width="1.2" stroke-miterlimit="10" stroke-linecap="round" stroke-linejoin="round"/>
</svg>
