<svg width="25" height="24" viewBox="0 0 25 24" fill="none" xmlns="http://www.w3.org/2000/svg">
<ellipse cx="12.3433" cy="12" rx="11.7736" ry="12" fill="#F2F6FF"/>
<path d="M13.6263 5.84613H10.6074C8.10778 5.84613 6.0791 7.91382 6.0791 10.4615C6.0791 12.4677 7.34099 14.1723 9.09797 14.8061V18.1538L12.1168 15.0769H13.6263C16.1259 15.0769 18.1546 13.0092 18.1546 10.4615C18.1546 7.91382 16.1259 5.84613 13.6263 5.84613Z" fill="white" stroke="#3913B8" stroke-width="1.5" stroke-miterlimit="10" stroke-linecap="round" stroke-linejoin="round"/>
<path d="M12.1168 13.2308H12.1229" stroke="#00CFFD" stroke-width="1.5" stroke-miterlimit="10" stroke-linecap="round" stroke-linejoin="round"/>
<path d="M10.9093 8.94765C10.9335 8.76918 11.0059 8.43688 11.2474 8.14149C11.3138 8.06149 11.4285 7.91995 11.6278 7.81534C11.8633 7.69226 12.0806 7.69226 12.1772 7.69226C12.2919 7.69226 12.5455 7.70457 12.8112 7.88303C13.1372 8.10457 13.2399 8.42457 13.2701 8.52303C13.2882 8.57226 13.3787 8.89841 13.2701 9.2738C13.2036 9.50765 13.0829 9.65534 12.9742 9.77841C12.5516 10.2892 12.1833 10.2461 12.1168 10.5784C12.1108 10.603 12.1168 10.7876 12.1168 11.1507C12.1168 11.2492 12.1168 11.3292 12.1168 11.3846" stroke="#00CFFD" stroke-width="1.5" stroke-miterlimit="10" stroke-linecap="round" stroke-linejoin="round"/>
</svg>
